<?xml version="1.0" encoding="iso-8859-1"?>
<!-- Generator: Adobe Illustrator 19.0.0, SVG Export Plug-In . SVG Version: 6.00 Build 0)  -->
<svg version="1.1" id="Capa_1" xmlns="http://www.w3.org/2000/svg" xmlns:xlink="http://www.w3.org/1999/xlink" x="0px" y="0px"
	 viewBox="0 0 512 512" style="enable-background:new 0 0 512 512;" xml:space="preserve">
<g>
	<g>
		<g>
			<path d="M185.376,0L48,137.376V512h416V0H185.376z M432,480H80V160h128V80h-32v48h-73.376l96-96H432V480z"/>
			<path d="M112,320h288V192H112V320z M144,224h224v64H144V224z"/>
			<rect x="128" y="352" width="32" height="32"/>
			<rect x="192" y="352" width="192" height="32"/>
			<rect x="128" y="416" width="32" height="32"/>
			<rect x="192" y="416" width="192" height="32"/>
			<rect x="240" y="80" width="32" height="32"/>
			<rect x="368" y="80" width="32" height="32"/>
			<rect x="304" y="80" width="32" height="32"/>
		</g>
	</g>
</g>
<g>
</g>
<g>
</g>
<g>
</g>
<g>
</g>
<g>
</g>
<g>
</g>
<g>
</g>
<g>
</g>
<g>
</g>
<g>
</g>
<g>
</g>
<g>
</g>
<g>
</g>
<g>
</g>
<g>
</g>
</svg>
